<svg id="图层_1" data-name="图层 1" xmlns="http://www.w3.org/2000/svg" viewBox="0 0 129.69 29.44"><defs><style>.cls-1{fill:#231815;}.cls-2{fill:#005bac;}</style></defs><title>LOGO</title><path class="cls-1" d="M42,8.74h2.85v7.7a9.49,9.49,0,0,1-.17,2.26,2.61,2.61,0,0,1-.49,1,3.51,3.51,0,0,1-.86.71,2.21,2.21,0,0,1-1.17.33H38.07A3.66,3.66,0,0,1,37,20.54,2.58,2.58,0,0,1,36,20a2.54,2.54,0,0,1-.68-1,4.75,4.75,0,0,1-.24-1.68V15.69h2.82V17a.79.79,0,0,0,.24.58,1.2,1.2,0,0,0,.52.32,1.93,1.93,0,0,0,.55.08h1.67a1.28,1.28,0,0,0,.68-.16.8.8,0,0,0,.33-.39,3.23,3.23,0,0,0,.09-.95Z"/><rect class="cls-1" x="46.73" y="8.75" width="2.76" height="11.93"/><polygon class="cls-1" points="51.38 8.69 56 8.69 61.91 17.41 62.31 17.41 62.31 8.69 65.1 8.69 65.1 20.74 60.37 20.74 54.6 12.2 54.17 12.2 54.17 20.73 51.38 20.75 51.38 8.69"/><path class="cls-1" d="M75.74,8.72a5.63,5.63,0,0,1,1.32.12,4.27,4.27,0,0,1,.65.21,1.79,1.79,0,0,1,.46.31,4.62,4.62,0,0,1,.43.44,3,3,0,0,1,.37.55,2.7,2.7,0,0,1,.17,1.15V12.7H76.41a2.84,2.84,0,0,0-.09-.61,1,1,0,0,0-.29-.45,1.13,1.13,0,0,0-.79-.22H71.47a4.45,4.45,0,0,0-1,.09,1.81,1.81,0,0,0-.54.22,1.54,1.54,0,0,0-.45.57,2.08,2.08,0,0,0-.24,1v2.81a2.49,2.49,0,0,0,.19,1.2,1.55,1.55,0,0,0,.56.51,2.79,2.79,0,0,0,1.27.21h3.9a1.67,1.67,0,0,0,.95-.21.59.59,0,0,0,.28-.57l0-1.17H72.5V14h6.67v2.15c0,1,0,1.67,0,1.92s-.06.51-.11.78a3.74,3.74,0,0,1-.22.74,1.39,1.39,0,0,1-.44.56,3.05,3.05,0,0,1-.76.42,2.58,2.58,0,0,1-1,.19H70.21a4.2,4.2,0,0,1-1.84-.32,3.58,3.58,0,0,1-1-.72,2.48,2.48,0,0,1-.55-.93,5.69,5.69,0,0,1-.26-1.21,13.06,13.06,0,0,1-.07-1.42V13.05c0-.39,0-.71,0-1a4,4,0,0,1,.18-1,3.92,3.92,0,0,1,.43-1,2.79,2.79,0,0,1,.81-.8,1.94,1.94,0,0,1,.85-.41l1.31-.17Z"/><path class="cls-1" d="M80.44,8.66h9.71A4,4,0,0,1,91.74,9a2.64,2.64,0,0,1,1.09.77,4.29,4.29,0,0,1,.64,1.3,4.75,4.75,0,0,1,.27,1.42v4a7.48,7.48,0,0,1-.24,2,3.86,3.86,0,0,1-.59,1.32,2.82,2.82,0,0,1-.91.74,4,4,0,0,1-1.79.3H80.44Zm2.76,2.76V18h6.07a1.3,1.3,0,0,0,.93-.33,1.9,1.9,0,0,0,.43-.55,4.51,4.51,0,0,0,.09-1.23V14.09c0-.58,0-1,0-1.34a1.81,1.81,0,0,0-.36-.9,1.22,1.22,0,0,0-1.06-.43Z"/><rect class="cls-1" x="95.87" y="8.75" width="2.76" height="11.93"/><path class="cls-1" d="M105.24,8.66h4.16L115,20.78h-3.1l-1.11-2.4H104l-1.07,2.4H99.75ZM105,16.1h4.72L107.38,11Z"/><path class="cls-1" d="M115.92,12.62a5.41,5.41,0,0,1,.22-1.43,4.34,4.34,0,0,1,.53-1.25,3.17,3.17,0,0,1,.94-.85,3.29,3.29,0,0,1,1.75-.39h6.23a3.67,3.67,0,0,1,2,.44,3.54,3.54,0,0,1,.94.92,4.11,4.11,0,0,1,.51,1.19,6.8,6.8,0,0,1,.19,1.74v3.16a15.6,15.6,0,0,1-.11,1.82,2.84,2.84,0,0,1-.46,1.4,3.71,3.71,0,0,1-.71.71,4.3,4.3,0,0,1-.84.47,4.17,4.17,0,0,1-1.53.2h-6.2a3.8,3.8,0,0,1-1.33-.27,3.55,3.55,0,0,1-1.35-.95,2.2,2.2,0,0,1-.64-1.51l-.17-2Zm4.79-1.22a4.72,4.72,0,0,0-1,.13,1.24,1.24,0,0,0-.59.35,1.52,1.52,0,0,0-.33.6,2.93,2.93,0,0,0-.11.84V16a4.23,4.23,0,0,0,.13,1.24,1.15,1.15,0,0,0,.33.54,1.3,1.3,0,0,0,.54.23,5.67,5.67,0,0,0,1.05.07h3.66a7.55,7.55,0,0,0,.83-.07,1.51,1.51,0,0,0,.72-.21,1.45,1.45,0,0,0,.34-.61,3.23,3.23,0,0,0,.17-1.1V13.35a2.44,2.44,0,0,0-.14-.89,1.55,1.55,0,0,0-.36-.59,1.57,1.57,0,0,0-.71-.35,3.53,3.53,0,0,0-.94-.13Z"/><path class="cls-2" d="M14.76,28.47,1,14.72,14.76,1,28.51,14.72Zm0-27.92A14.17,14.17,0,1,0,28.94,14.72,14.17,14.17,0,0,0,14.76.55"/><path class="cls-1" d="M9.79,15.83a2.39,2.39,0,0,1-.24,1.34.69.69,0,0,1-.45.31.45.45,0,0,1-.16,0,.73.73,0,0,1-.62-.33,2.56,2.56,0,0,1-.24-1.34v-.7h-3v.29A5.37,5.37,0,0,0,6,18.78a3.59,3.59,0,0,0,3,1.15H9.1a4.19,4.19,0,0,0,3-1,4.92,4.92,0,0,0,1.06-3.57V9H9.79Z"/><path class="cls-1" d="M20.46,15.71A1.9,1.9,0,0,1,19,17.31a7.24,7.24,0,0,1-1.59.09V11.58h1.06a4.88,4.88,0,0,1,.53,0c1.08.22,1.45,1.1,1.55,2.31a5.9,5.9,0,0,1-.07,1.79m3.38-2.94a5.71,5.71,0,0,0-.6-1.62,3.45,3.45,0,0,0-1.06-1.23,5.11,5.11,0,0,0-1.43-.67,6.09,6.09,0,0,0-1.7-.2H14V19.93H19a4.63,4.63,0,0,0,4.52-2.68A6.67,6.67,0,0,0,24,14.76a8.58,8.58,0,0,0-.16-2"/><path class="cls-2" d="M10.25,16.29A2.39,2.39,0,0,1,10,17.63a.69.69,0,0,1-.45.31.51.51,0,0,1-.16,0,.73.73,0,0,1-.62-.33,2.58,2.58,0,0,1-.24-1.34V15.6h-3v.29a5.37,5.37,0,0,0,.89,3.35,3.59,3.59,0,0,0,3,1.15h.14a4.17,4.17,0,0,0,3-1,4.91,4.91,0,0,0,1.06-3.56V9.51H10.25Z"/><path class="cls-2" d="M20.93,16.17a1.9,1.9,0,0,1-1.48,1.6,7.22,7.22,0,0,1-1.59.09V12h1.06a4.81,4.81,0,0,1,.53,0c1.08.23,1.45,1.1,1.55,2.31a5.85,5.85,0,0,1-.07,1.78m3.37-2.94a5.64,5.64,0,0,0-.6-1.62,3.5,3.5,0,0,0-1.06-1.23,5.09,5.09,0,0,0-1.43-.67,6.18,6.18,0,0,0-1.7-.2h-5V20.39h4.94A4.63,4.63,0,0,0,24,17.71a6.69,6.69,0,0,0,.49-2.49,8.63,8.63,0,0,0-.16-2"/></svg>